<svg xmlns="http://www.w3.org/2000/svg" viewBox="0 0 512 512" role="img" aria-labelledby="title desc">
  <title id="title">devnotes logo</title>
  <desc id="desc">Dark rounded application icon with the devnotes wordmark.</desc>
  <defs>
    <linearGradient id="bg" x1="0" y1="0" x2="1" y2="1">
      <stop offset="0%" stop-color="#27364a"/>
      <stop offset="100%" stop-color="#0b1018"/>
    </linearGradient>
    <linearGradient id="panel" x1="0" y1="0" x2="0" y2="1">
      <stop offset="0%" stop-color="#233149"/>
      <stop offset="100%" stop-color="#121c2c"/>
    </linearGradient>
  </defs>
  <rect width="512" height="512" rx="104" fill="url(#bg)"/>
  <circle cx="256" cy="176" r="136" fill="#314a7a" opacity="0.85"/>
  <rect x="92" y="116" width="328" height="292" rx="28" fill="url(#panel)"/>
  <rect x="92" y="116" width="328" height="36" rx="18" fill="#2d3a53"/>
  <circle cx="120" cy="134" r="6" fill="#ff5f57"/>
  <circle cx="142" cy="134" r="6" fill="#febc2e"/>
  <circle cx="164" cy="134" r="6" fill="#28c840"/>
  <rect x="116" y="180" width="280" height="4" rx="2" fill="#34507c"/>
  <rect x="118" y="214" width="18" height="8" rx="3" fill="#5a84d6"/>
  <rect x="142" y="214" width="38" height="8" rx="3" fill="#2d3a53"/>
  <rect x="188" y="214" width="26" height="8" rx="3" fill="#5a84d6"/>
  <rect x="118" y="238" width="16" height="8" rx="3" fill="#5a84d6"/>
  <rect x="142" y="238" width="54" height="8" rx="3" fill="#2d3a53"/>
  <rect x="204" y="238" width="52" height="8" rx="3" fill="#2c8577"/>
  <rect x="118" y="262" width="14" height="8" rx="3" fill="#5a84d6"/>
  <rect x="142" y="262" width="70" height="8" rx="3" fill="#2d3a53"/>
  <rect x="116" y="300" width="142" height="128" rx="18" fill="#0f1726"/>
  <rect x="116" y="300" width="18" height="128" rx="9" fill="#4180ff" opacity="0.85"/>
  <text x="128" y="284" fill="#ffffff" font-family="Segoe UI, Arial, Helvetica, sans-serif" font-size="96" font-weight="700">dev</text>
  <text x="128" y="376" fill="#5f79a4" font-family="Segoe UI, Arial, Helvetica, sans-serif" font-size="92" font-weight="300">notes</text>
</svg>
